<?xml version="1.0" encoding="utf-8"?><!-- Uploaded to: SVG Repo, www.svgrepo.com, Generator: SVG Repo Mixer Tools -->
<svg width="800px" height="800px" viewBox="0 0 64 64" fill="none" xmlns="http://www.w3.org/2000/svg">
<path d="M24.31 23.404C23.8687 23.1099 23.3286 23.0032 22.8086 23.1073C22.2886 23.2114 21.8312 23.5177 21.537 23.959C21.2429 24.4002 21.136 24.9402 21.2399 25.4602C21.3438 25.9802 21.6499 26.4377 22.091 26.732L30.405 32.275L30.412 32.28L30.425 32.286C30.5692 32.3786 30.7248 32.4518 30.888 32.504C30.928 32.517 30.966 32.53 31.006 32.541C31.174 32.5884 31.3475 32.6136 31.522 32.616C31.6962 32.6136 31.8694 32.5884 32.037 32.541C32.077 32.53 32.116 32.517 32.155 32.504C32.3185 32.4518 32.4745 32.3786 32.619 32.286L32.631 32.28L32.638 32.275L40.951 26.732C41.3923 26.4378 41.6986 25.9804 41.8027 25.4604C41.9068 24.9404 41.8001 24.4003 41.506 23.959C41.2118 23.5177 40.7544 23.2114 40.2344 23.1073C39.7144 23.0032 39.1744 23.1099 38.733 23.404L33.519 26.881V5.646C33.519 5.11556 33.3083 4.60685 32.9332 4.23178C32.5581 3.85671 32.0495 3.646 31.519 3.646C30.9886 3.646 30.4799 3.85671 30.1048 4.23178C29.7297 4.60685 29.519 5.11556 29.519 5.646V26.881L24.31 23.404Z" fill="#000000"/>
<path d="M48.33 15.981H36.53V21.281L37.08 20.911C38.1822 20.1759 39.5312 19.9084 40.8305 20.1671C42.1299 20.4259 43.2734 21.1898 44.01 22.291C44.7454 23.3958 45.012 24.7473 44.7514 26.0487C44.4908 27.35 43.7241 28.4946 42.62 29.231L34.32 34.761L34.3 34.781C34.1978 34.8516 34.0909 34.9151 33.98 34.971C33.88 35.031 33.78 35.081 33.68 35.131C33.5913 35.1811 33.4974 35.2213 33.4 35.251C33.1517 35.3582 32.8939 35.4419 32.63 35.501C32.58 35.511 32.53 35.521 32.49 35.531C32.3415 35.5608 32.1912 35.5808 32.04 35.591C31.8707 35.6109 31.7004 35.6209 31.53 35.621C31.3596 35.6209 31.1893 35.6109 31.02 35.591C30.8688 35.5808 30.7185 35.5608 30.57 35.531C30.53 35.521 30.48 35.511 30.43 35.501C30.3 35.471 30.17 35.431 30.04 35.391C29.91 35.351 29.79 35.311 29.66 35.261C29.57 35.221 29.48 35.181 29.4 35.141C29.286 35.0924 29.1757 35.0356 29.07 34.971C28.9599 34.9136 28.8531 34.8501 28.75 34.781L28.73 34.761L20.43 29.231C19.3278 28.493 18.5627 27.3485 18.3022 26.0479C18.0417 24.7473 18.307 23.3965 19.04 22.291C19.4042 21.7445 19.8725 21.2751 20.4181 20.9096C20.9638 20.5442 21.576 20.2898 22.22 20.161C22.8653 20.0324 23.5295 20.0325 24.1747 20.1612C24.82 20.2899 25.4334 20.5447 25.98 20.911L26.53 21.281V15.981H14.72C13.2083 15.981 11.7584 16.5815 10.6895 17.6505C9.62053 18.7194 9.01999 20.1692 9.01999 21.681V55.281C9.02263 56.7919 9.62403 58.2402 10.6924 59.3085C11.7608 60.3769 13.2091 60.9783 14.72 60.981H48.33C49.8409 60.9783 51.2892 60.3769 52.3576 59.3085C53.426 58.2402 54.0274 56.7919 54.03 55.281V21.681C54.03 20.9324 53.8826 20.1912 53.5961 19.4997C53.3096 18.8081 52.8898 18.1797 52.3605 17.6505C51.8312 17.1212 51.2028 16.7013 50.5113 16.4149C49.8197 16.1284 49.0785 15.981 48.33 15.981Z" fill="#999999"/>
</svg>